<svg width="77" height="63" viewBox="0 0 77 63" fill="none" xmlns="http://www.w3.org/2000/svg">
<path d="M31.2042 48.5944C32.6001 48.5944 33.7317 47.4312 33.7317 45.9964C33.7317 44.5616 32.6001 43.3984 31.2042 43.3984C29.8083 43.3984 28.6768 44.5616 28.6768 45.9964C28.6768 47.4312 29.8083 48.5944 31.2042 48.5944Z" fill="#E4F254"/>
<path d="M2.52746 48.5944C3.92334 48.5944 5.05492 47.4312 5.05492 45.9964C5.05492 44.5616 3.92334 43.3984 2.52746 43.3984C1.13158 43.3984 0 44.5616 0 45.9964C0 47.4312 1.13158 48.5944 2.52746 48.5944Z" fill="#E4F254"/>
<path d="M16.8663 62.9772C18.2622 62.9772 19.3938 61.8141 19.3938 60.3792C19.3938 58.9444 18.2622 57.7812 16.8663 57.7812C15.4704 57.7812 14.3389 58.9444 14.3389 60.3792C14.3389 61.8141 15.4704 62.9772 16.8663 62.9772Z" fill="#E4F254"/>
<path d="M16.8663 34.1882C18.2622 34.1882 19.3938 33.025 19.3938 31.5902C19.3938 30.1553 18.2622 28.9922 16.8663 28.9922C15.4704 28.9922 14.3389 30.1553 14.3389 31.5902C14.3389 33.025 15.4704 34.1882 16.8663 34.1882Z" fill="#E4F254"/>
<path d="M59.8829 48.5944C61.2788 48.5944 62.4104 47.4312 62.4104 45.9964C62.4104 44.5616 61.2788 43.3984 59.8829 43.3984C58.4871 43.3984 57.3555 44.5616 57.3555 45.9964C57.3555 47.4312 58.4871 48.5944 59.8829 48.5944Z" fill="#E4F254"/>
<path d="M31.2042 48.5944C32.6001 48.5944 33.7317 47.4312 33.7317 45.9964C33.7317 44.5616 32.6001 43.3984 31.2042 43.3984C29.8083 43.3984 28.6768 44.5616 28.6768 45.9964C28.6768 47.4312 29.8083 48.5944 31.2042 48.5944Z" fill="#E4F254"/>
<path d="M45.5439 62.9772C46.9398 62.9772 48.0714 61.8141 48.0714 60.3792C48.0714 58.9444 46.9398 57.7812 45.5439 57.7812C44.1481 57.7812 43.0165 58.9444 43.0165 60.3792C43.0165 61.8141 44.1481 62.9772 45.5439 62.9772Z" fill="#E4F254"/>
<path d="M45.5441 34.1882C46.9399 34.1882 48.0715 33.025 48.0715 31.5902C48.0715 30.1553 46.9399 28.9922 45.5441 28.9922C44.1482 28.9922 43.0166 30.1553 43.0166 31.5902C43.0166 33.025 44.1482 34.1882 45.5441 34.1882Z" fill="#E4F254"/>
<path d="M31.2042 19.8053C32.6001 19.8053 33.7317 18.6422 33.7317 17.2074C33.7317 15.7725 32.6001 14.6094 31.2042 14.6094C29.8083 14.6094 28.6768 15.7725 28.6768 17.2074C28.6768 18.6422 29.8083 19.8053 31.2042 19.8053Z" fill="#E4F254"/>
<path d="M2.52721 19.8053C3.92309 19.8053 5.05467 18.6422 5.05467 17.2074C5.05467 15.7725 3.92309 14.6094 2.52721 14.6094C1.13134 14.6094 -0.000244141 15.7725 -0.000244141 17.2074C-0.000244141 18.6422 1.13134 19.8053 2.52721 19.8053Z" fill="#E4F254"/>
<path d="M16.8663 34.1882C18.2622 34.1882 19.3938 33.025 19.3938 31.5902C19.3938 30.1553 18.2622 28.9922 16.8663 28.9922C15.4704 28.9922 14.3389 30.1553 14.3389 31.5902C14.3389 33.025 15.4704 34.1882 16.8663 34.1882Z" fill="#E4F254"/>
<path d="M16.8663 5.39519C18.2622 5.39519 19.3938 4.23203 19.3938 2.7972C19.3938 1.36238 18.2622 0.199219 16.8663 0.199219C15.4704 0.199219 14.3389 1.36238 14.3389 2.7972C14.3389 4.23203 15.4704 5.39519 16.8663 5.39519Z" fill="#E4F254"/>
<path d="M59.8829 19.8053C61.2788 19.8053 62.4104 18.6422 62.4104 17.2074C62.4104 15.7725 61.2788 14.6094 59.8829 14.6094C58.4871 14.6094 57.3555 15.7725 57.3555 17.2074C57.3555 18.6422 58.4871 19.8053 59.8829 19.8053Z" fill="#E4F254"/>
<path d="M31.2042 19.8053C32.6001 19.8053 33.7317 18.6422 33.7317 17.2074C33.7317 15.7725 32.6001 14.6094 31.2042 14.6094C29.8083 14.6094 28.6768 15.7725 28.6768 17.2074C28.6768 18.6422 29.8083 19.8053 31.2042 19.8053Z" fill="#E4F254"/>
<path d="M45.5441 34.1882C46.9399 34.1882 48.0715 33.025 48.0715 31.5902C48.0715 30.1553 46.9399 28.9922 45.5441 28.9922C44.1482 28.9922 43.0166 30.1553 43.0166 31.5902C43.0166 33.025 44.1482 34.1882 45.5441 34.1882Z" fill="#E4F254"/>
<path d="M45.5439 5.39519C46.9398 5.39519 48.0714 4.23203 48.0714 2.7972C48.0714 1.36238 46.9398 0.199219 45.5439 0.199219C44.1481 0.199219 43.0165 1.36238 43.0165 2.7972C43.0165 4.23203 44.1481 5.39519 45.5439 5.39519Z" fill="#E4F254"/>
<path d="M51.3784 59.0993C65.0893 59.0993 76.2041 47.6743 76.2041 33.5808C76.2041 19.4872 65.0894 8.0625 51.3784 8.0625C37.6675 8.0625 26.5527 19.4873 26.5527 33.5808C26.5527 47.6742 37.6676 59.0992 51.3784 59.0993Z" fill="#36D588"/>
<path d="M51.8257 59.4587C65.5365 59.4587 76.6514 48.0337 76.6514 33.9401C76.6514 19.8466 65.5366 8.42188 51.8257 8.42188C38.1148 8.42188 27 19.8467 27 33.9401C27 48.0336 38.1148 59.4586 51.8257 59.4587Z" fill="#36D588"/>
<path d="M66.3054 21.9551C65.6683 21.1472 64.9827 20.3811 64.2528 19.6609C61.9949 17.4988 59.2463 15.952 56.2578 15.1617C53.2692 14.3714 50.1357 14.3627 47.143 15.1364C44.1503 15.9101 41.3937 17.4414 39.1244 19.591C36.8552 21.7406 35.1455 24.4399 34.1514 27.4428L35.0281 27.7481C35.9715 24.8948 37.595 22.3298 39.7506 20.2871C41.9062 18.2445 44.5251 16.7893 47.3683 16.0543C50.2116 15.3193 53.1886 15.328 56.0278 16.0795C58.867 16.8311 61.4778 18.3014 63.6221 20.3566C64.2973 21.0229 64.9327 21.7306 65.5249 22.4756C65.4752 22.523 65.4202 22.5613 65.3742 22.6143C64.9061 23.1292 64.6536 23.8124 64.6711 24.5168C64.6886 25.2213 64.9747 25.8905 65.4677 26.3801C65.9607 26.8698 66.6211 27.1407 67.3066 27.1345C67.9921 27.1283 68.6478 26.8455 69.1324 26.347C69.1541 26.3247 69.1759 26.3023 69.1967 26.2795C69.6693 25.7583 69.9212 25.0656 69.8971 24.3536C69.8729 23.6416 69.5748 22.9686 69.0681 22.4825C68.704 22.1339 68.2507 21.8991 67.7614 21.8057C67.2721 21.7123 66.7671 21.7641 66.3054 21.9551ZM69.0974 24.3823C69.106 24.6269 69.0675 24.8708 68.9842 25.1C68.9008 25.3292 68.7742 25.5392 68.6116 25.718C68.2812 26.0749 67.8278 26.2844 67.3487 26.3014C66.8697 26.3185 66.4033 26.1417 66.0497 25.8091C65.8754 25.6424 65.7348 25.442 65.636 25.2194C65.5371 24.9967 65.4819 24.7562 65.4735 24.5117C65.4651 24.2671 65.5037 24.0232 65.587 23.794C65.6704 23.5648 65.7969 23.3547 65.9593 23.1757C65.9743 23.1603 65.9885 23.1439 66.0036 23.1285C66.2536 22.8722 66.5709 22.6965 66.9167 22.6229C67.2624 22.5493 67.6215 22.581 67.9499 22.7141C68.2784 22.8472 68.5619 23.0759 68.7657 23.3723C68.9695 23.6686 69.0848 24.0196 69.0974 24.3823Z" fill="#000072"/>
<path d="M64.4882 45.8561C62.0737 48.5153 58.934 50.3625 55.4805 51.1556C52.027 51.9488 48.4209 51.6507 45.1351 50.3006C41.8492 48.9506 39.0369 46.6114 37.0668 43.5899C35.0966 40.5684 34.0607 37.0055 34.0947 33.3683C34.6702 33.2758 35.1916 32.9666 35.5578 32.501C35.9239 32.0353 36.1087 31.4465 36.0761 30.8487C36.0434 30.2509 35.7958 29.687 35.3813 29.2663C34.9668 28.8457 34.415 28.5984 33.8331 28.5726C33.2512 28.5467 32.6807 28.7441 32.2324 29.1264C31.7842 29.5088 31.4902 30.0487 31.4076 30.6413C31.3249 31.234 31.4595 31.8371 31.7852 32.3335C32.111 32.8298 32.6045 33.184 33.1701 33.3273C33.1278 37.1013 34.1802 40.8027 36.1929 43.9595C38.2056 47.1162 41.0875 49.5853 44.471 51.0515C47.8544 52.5178 51.5861 52.9149 55.19 52.1921C58.7939 51.4694 62.1067 49.6596 64.7058 46.9936C64.8609 46.8342 65.0141 46.6715 65.1653 46.5053C67.2683 44.1937 68.7745 41.3776 69.5466 38.3139C70.3186 35.2502 70.332 32.0366 69.5854 28.9662L68.6864 29.1938C69.3963 32.1106 69.3839 35.1637 68.6506 38.0742C67.9172 40.9848 66.4862 43.6602 64.4882 45.8561Z" fill="#000072"/>
<path d="M47.2353 30.6646C47.0732 30.11 46.7415 29.6238 46.2894 29.2782C45.8373 28.9326 45.289 28.7461 44.7256 28.7461C44.1622 28.7461 43.6138 28.9326 43.1617 29.2782C42.7096 29.6238 42.3779 30.11 42.2158 30.6646" stroke="#000072" stroke-width="1.40487" stroke-miterlimit="10" stroke-linecap="round"/>
<path d="M60.5419 30.6646C60.3798 30.11 60.0481 29.6238 59.5961 29.2782C59.144 28.9326 58.5956 28.7461 58.0322 28.7461C57.4688 28.7461 56.9204 28.9326 56.4684 29.2782C56.0163 29.6238 55.6846 30.11 55.5225 30.6646" stroke="#000072" stroke-width="1.40487" stroke-miterlimit="10" stroke-linecap="round"/>
</svg>
