<svg width="16" height="17" viewBox="0 0 16 17" fill="none" xmlns="http://www.w3.org/2000/svg">
<path d="M8.3031 3.54297H4.43766C4.14476 3.54297 3.86384 3.65467 3.65673 3.8535C3.44961 4.05234 3.33325 4.32201 3.33325 4.6032V12.0249C3.33325 12.306 3.44961 12.5757 3.65673 12.7746C3.86384 12.9734 4.14476 13.0851 4.43766 13.0851H12.1685C12.4615 13.0851 12.7424 12.9734 12.9495 12.7746C13.1566 12.5757 13.273 12.306 13.273 12.0249V8.31403" stroke="#9B8FCC" stroke-width="1.2" stroke-linecap="round" stroke-linejoin="round"/>
<path d="M12.4446 2.74734C12.6643 2.53645 12.9623 2.41797 13.273 2.41797C13.5836 2.41797 13.8816 2.53645 14.1013 2.74734C14.3209 2.95824 14.4444 3.24427 14.4444 3.54252C14.4444 3.84077 14.3209 4.1268 14.1013 4.33769L8.85531 9.37381L6.64648 9.90393L7.19869 7.78346L12.4446 2.74734Z" stroke="#9B8FCC" stroke-width="1.2" stroke-linecap="round" stroke-linejoin="round"/>
</svg>
