<svg width="16" height="16" viewBox="0 0 16 16" fill="none" xmlns="http://www.w3.org/2000/svg">
<path d="M2.66659 13.3346C2.29992 13.3346 1.98614 13.2042 1.72525 12.9433C1.46392 12.682 1.33325 12.368 1.33325 12.0013V4.0013C1.33325 3.63464 1.46392 3.32086 1.72525 3.05997C1.98614 2.79864 2.29992 2.66797 2.66659 2.66797H13.3333C13.6999 2.66797 14.0139 2.79864 14.2753 3.05997C14.5361 3.32086 14.6666 3.63464 14.6666 4.0013V12.0013C14.6666 12.368 14.5361 12.682 14.2753 12.9433C14.0139 13.2042 13.6999 13.3346 13.3333 13.3346H2.66659ZM13.3333 5.33464L8.34992 8.4513C8.29436 8.48464 8.23592 8.50952 8.17458 8.52597C8.1137 8.54286 8.05547 8.5513 7.99992 8.5513C7.94436 8.5513 7.88614 8.54286 7.82525 8.52597C7.76392 8.50952 7.70547 8.48464 7.64992 8.4513L2.66659 5.33464V12.0013H13.3333V5.33464ZM7.99992 7.33464L13.3333 4.0013H2.66659L7.99992 7.33464ZM2.66659 5.33464V5.5013V4.51797V4.53464V4.0013V4.53464V4.52597V5.5013V5.33464V12.0013V5.33464Z" fill="#9B8FCC"/>
</svg>
