<svg width="60" height="44" viewBox="0 0 60 44" fill="none" xmlns="http://www.w3.org/2000/svg">
<path fill-rule="evenodd" clip-rule="evenodd" d="M17.4153 28.9872C20.0869 34.78 25.9804 38.6013 32.4178 38.6013C38.2566 38.6013 43.5451 35.6128 46.565 30.6072L47.4199 31.1228C44.2177 36.4309 38.6094 39.5999 32.4178 39.5999C25.5103 39.5999 19.1934 35.45 16.4093 29.1838C16.1814 29.2096 15.9523 29.2231 15.7229 29.2242C14.3167 29.2242 13.1867 28.7629 12.334 27.8178V33.7892H9.38287V18.0654H12.3108V19.6794C12.8924 18.7167 14.1195 18.0694 15.4151 17.9167C16.4334 13.7718 18.995 10.0709 22.5342 7.64331C22.3728 7.14519 22.3732 6.60877 22.5355 6.11093C22.6977 5.61309 23.0134 5.1794 23.4373 4.87203C23.8612 4.56465 24.3715 4.39938 24.8951 4.3999C25.4187 4.40043 25.9287 4.56673 26.352 4.87495C26.7753 5.18317 27.0901 5.6175 27.2514 6.11566C27.4126 6.61383 27.412 7.15025 27.2496 7.64804C27.0872 8.14583 26.7713 8.57942 26.3473 8.88665C25.9233 9.19389 25.413 9.359 24.8893 9.3583C24.5377 9.35808 24.1902 9.2822 23.8705 9.13582C23.5507 8.98944 23.2663 8.77598 23.0363 8.50994C19.8022 10.7505 17.4395 14.1195 16.4454 17.9015C17.6656 17.9984 18.7419 18.4947 19.6884 19.3796C20.749 20.3709 21.2794 21.7543 21.2794 23.5295C21.2794 25.3047 20.726 26.7111 19.6425 27.7026C18.984 28.319 18.2391 28.7453 17.4153 28.9872ZM23.7559 5.5942C23.4432 5.86882 23.2407 6.24753 23.1859 6.6601H23.1859C23.1418 6.99672 23.1984 7.33887 23.3487 7.64328C23.499 7.9477 23.7362 8.2007 24.0303 8.37031C24.3244 8.53992 24.6622 8.61851 25.001 8.59615C25.3397 8.57379 25.6642 8.45149 25.9335 8.2447C26.2028 8.03791 26.4046 7.75591 26.5136 7.43439C26.6226 7.11286 26.6338 6.76623 26.5458 6.43833C26.4578 6.11044 26.2746 5.816 26.0192 5.59225C25.7639 5.36851 25.4479 5.2255 25.1113 5.18132C25.0368 5.17164 24.9617 5.16676 24.8865 5.1667C24.4703 5.16769 24.0686 5.31957 23.7559 5.5942ZM12.3569 23.5756C12.3569 25.5812 13.6019 26.7572 15.3541 26.7572C17.1293 26.7572 18.3513 25.5122 18.3513 23.5063C18.3513 21.5467 17.1754 20.3479 15.4464 20.3479C13.7633 20.3479 12.3569 21.4315 12.3569 23.5756ZM49.9264 22.0912C49.9269 23.1824 49.8259 24.2714 49.6247 25.3439H49.6246C50.0747 25.6348 50.4024 26.0807 50.5455 26.5972C50.6886 27.1137 50.637 27.6647 50.4007 28.1457C50.1644 28.6267 49.7597 29.0042 49.2634 29.2066C48.7672 29.4089 48.2139 29.422 47.7086 29.2434C47.2033 29.0648 46.7812 28.7069 46.5223 28.2377C46.2634 27.7684 46.1858 27.2205 46.3043 26.6978C46.4227 26.1751 46.7289 25.7141 47.1647 25.4022C47.6006 25.0904 48.1358 24.9494 48.6687 25.006C48.8406 24.0439 48.9273 23.0685 48.9278 22.0912C48.9278 12.9875 41.5215 5.581 32.4178 5.581C31.2132 5.58067 30.0121 5.71142 28.8357 5.97094L28.6198 4.99594C29.8671 4.72066 31.1406 4.582 32.4178 4.58243C42.072 4.58243 49.9264 12.437 49.9264 22.0912ZM29.2686 13.8233V25.3969C29.2686 27.956 30.8825 29.2242 33.0033 29.2242C33.8104 29.2242 34.5943 29.0396 35.3782 28.6708L34.3639 26.5267C34.087 26.6651 33.8337 26.7342 33.58 26.7342C32.8192 26.7342 32.2197 26.2961 32.2197 25.3508V13.8233H29.2686ZM36.7411 13.8233V25.3969C36.7411 27.956 38.3549 29.2242 40.4761 29.2242C41.283 29.2242 42.0667 29.0396 42.8506 28.6708L41.8363 26.5267C41.5598 26.6651 41.3061 26.7342 41.0523 26.7342C40.2916 26.7342 39.6924 26.2961 39.6924 25.3508V13.8233H36.7411ZM26.3631 18.0653H23.412V28.9935H26.3631V18.0653Z" fill="#000072"/>
</svg>
