<svg width="78" height="38" viewBox="0 0 78 38" fill="none" xmlns="http://www.w3.org/2000/svg">
<g clip-path="url(#clip0_122_1614)">
<path d="M20.2737 10.2591V22.7153C20.2737 25.4698 21.9197 26.8344 24.0816 26.8344C24.9046 26.8344 25.7037 26.6361 26.5029 26.2394L25.4682 23.932C25.1864 24.0815 24.927 24.1555 24.669 24.1555C23.8937 24.1555 23.2825 23.6833 23.2825 22.6666V10.2591H20.2737Z" fill="#010077"/>
<path d="M27.891 10.2591V22.7153C27.891 25.4698 29.5355 26.8344 31.6989 26.8344C32.5218 26.8344 33.321 26.6361 34.1201 26.2394L33.0854 23.932C32.8036 24.0815 32.5442 24.1555 32.2863 24.1555C31.511 24.1555 30.8997 23.6833 30.8997 22.6666V10.2591H27.891Z" fill="#010077"/>
<path d="M17.3113 14.8235H14.3026V26.5857H17.3113V14.8235Z" fill="#010077"/>
<path d="M23.4838 38L10.5067 16.2385C9.709 15.4515 8.82189 14.951 7.83638 14.7417C6.94778 14.5922 6.2202 14.6394 5.66557 14.7527L5.68048 14.7464C5.65662 14.7527 5.63426 14.7574 5.6119 14.7637C5.60593 14.7653 5.59997 14.7669 5.5955 14.7684C5.16312 14.8723 4.75013 15.0329 4.37442 15.2422L4.37293 15.2438C3.78699 15.5727 3.29647 16.0213 2.98635 16.5627V14.8267H0V31.7498H3.00872V25.3234C3.87793 26.3402 5.02894 26.8375 6.46322 26.8375C6.70177 26.8375 6.93436 26.8202 7.16397 26.795L8.18824 26.5825C9.02913 26.3228 9.78802 25.8632 10.4589 25.2006C11.5637 24.1335 12.1273 22.6209 12.1273 20.7101C12.1273 18.7993 11.5876 17.3104 10.5052 16.2432L23.4838 38ZM6.08751 24.1791C4.30136 24.1791 3.03257 22.9137 3.03257 20.7542C3.03257 18.4468 4.46686 17.2805 6.18144 17.2805C7.89602 17.2805 9.14244 18.5711 9.14244 20.6802C9.14244 22.7893 7.89751 24.1791 6.08602 24.1791H6.08751Z" fill="#010077"/>
<path d="M75.2358 13.7579C74.9317 13.654 74.5992 13.5816 74.2384 13.5407C74.2846 13.6729 74.3293 13.8051 74.3726 13.9374H75.2925C75.2746 13.8775 75.2552 13.8177 75.2358 13.7579ZM74.3726 11.5324C72.336 7.11583 68.7905 3.80895 64.3967 2.20037C62.0395 1.34257 59.5974 1.02777 57.1343 1.26702L57.2149 2.18306C59.5526 1.95798 61.8725 2.25546 64.1119 3.07077C68.2866 4.59908 71.6546 7.74069 73.5884 11.9337C73.6853 12.143 73.7777 12.3524 73.8657 12.5649C74.2145 12.5806 74.5455 12.6215 74.8601 12.6861C74.711 12.2973 74.5485 11.9132 74.3726 11.5324ZM74.5426 29.0772C74.4158 28.8018 74.2429 28.561 74.0416 28.3516C74.2548 27.9078 74.4814 27.3978 74.6842 26.8989C74.3711 26.9429 74.0446 26.965 73.7032 26.9681C73.5734 27.2703 73.4393 27.5678 73.3095 27.8417C73.2499 27.8149 73.1947 27.7787 73.1321 27.7583C72.5104 27.5316 71.841 27.5741 71.2506 27.8779C70.6587 28.1817 70.2144 28.7105 69.9997 29.3668C69.5658 30.6937 70.2129 32.1433 71.4444 32.6422C71.4712 32.6533 71.4981 32.6643 71.5249 32.6737C72.8086 33.1412 74.2131 32.4187 74.6574 31.0636C74.872 30.4072 74.8318 29.7021 74.5426 29.0772ZM73.9432 30.8039C73.6361 31.7435 72.661 32.2456 71.7709 31.9214C70.8838 31.5877 70.4067 30.5662 70.7138 29.6281C70.8629 29.1717 71.17 28.8049 71.5801 28.594C71.9916 28.3831 72.4537 28.3532 72.8861 28.5106C72.9055 28.5185 72.9249 28.5248 72.9428 28.5326C73.3483 28.6979 73.6733 29.0127 73.8642 29.4266C74.064 29.8595 74.0923 30.3474 73.9432 30.8039ZM74.2563 25.561C74.2056 25.7042 74.1504 25.8538 74.0908 26.0096C74.4412 25.9891 74.7692 25.9435 75.0763 25.8727C75.1136 25.7704 75.1464 25.6712 75.1777 25.5768C75.1792 25.572 75.1807 25.5657 75.1822 25.561H74.2563Z" fill="#B4FC4B"/>
<path d="M42.2413 13.6226C42.5394 13.684 42.8168 13.7737 43.0747 13.8902C43.0702 13.9059 43.0642 13.9216 43.0598 13.9374H42.1414C42.1727 13.8319 42.2055 13.728 42.2413 13.6226Z" fill="#36D588"/>
<path d="M56.0131 3.04087C55.621 4.23707 54.385 4.87453 53.2504 4.46058C52.7762 4.28744 52.4035 3.95376 52.1486 3.54296C48.1767 5.34042 45.0398 8.69766 43.3893 13.004C43.1269 12.8891 42.8496 12.7962 42.5558 12.7254C44.2898 8.1515 47.6146 4.58807 51.8295 2.68673C51.7669 2.31685 51.7803 1.92651 51.9055 1.54404C52.2962 0.347831 53.5336 -0.288047 54.6668 0.125903C55.8014 0.53828 56.4037 1.84309 56.0131 3.04087Z" fill="#36D588"/>
<path d="M43.1806 25.5862C42.9257 25.7105 42.6498 25.8081 42.3531 25.8789C42.3159 25.7735 42.2801 25.6665 42.2458 25.561H43.1717C43.1717 25.561 43.1776 25.5783 43.1806 25.5862Z" fill="#36D588"/>
<path d="M69.4226 34.0808C64.75 37.9181 58.6238 38.9947 53.0342 36.9596C52.8374 36.8872 52.6436 36.8117 52.4498 36.733C48.3229 35.0567 45.004 31.8458 43.0583 27.6276C42.9271 27.3427 42.8034 27.0547 42.6856 26.7651C42.9778 26.688 43.2537 26.5888 43.5146 26.4645C43.616 26.7195 43.7263 26.9729 43.8426 27.2247C45.7763 31.4193 49.1459 34.5562 53.319 36.0876C58.6282 38.022 64.4489 37.0005 68.8874 33.3553L69.4226 34.0808Z" fill="#36D588"/>
<path d="M45.7345 18.9976C45.6898 17.452 45.2902 16.1488 44.5373 15.0895C44.1556 14.5544 43.6681 14.1546 43.0747 13.8901C42.8168 13.7737 42.5395 13.684 42.2413 13.6226C41.87 13.5407 41.4675 13.5014 41.0336 13.5014C39.4219 13.5014 38.1919 14.1121 37.3435 15.3335V14.2443C37.3435 14.09 37.2988 13.9657 37.2123 13.8728C37.1244 13.78 37.0066 13.7343 36.8605 13.7343H36.4862C36.3401 13.7343 36.2238 13.78 36.1359 13.8728C36.0479 13.9657 36.0032 14.09 36.0032 14.2443V29.6864C36.0032 29.8406 36.0479 29.9649 36.1359 30.0578C36.2238 30.1507 36.3401 30.1979 36.4862 30.1979H36.8605C37.0066 30.1979 37.1244 30.1507 37.2123 30.0578C37.2988 29.9649 37.3435 29.8406 37.3435 29.6864V24.1917C38.2068 25.4131 39.4368 26.0238 41.0336 26.0238C41.5122 26.0238 41.9505 25.975 42.3531 25.879C42.6498 25.8081 42.9256 25.7105 43.1806 25.5862C43.7262 25.3218 44.178 24.9393 44.5373 24.4356C45.2902 23.3764 45.6898 22.0731 45.7345 20.5275C45.748 20.3733 45.7554 20.1183 45.7554 19.7626C45.7554 19.4069 45.748 19.1519 45.7345 18.9976ZM44.3942 20.4126C44.3509 21.6639 44.0542 22.6886 43.5041 23.485C42.9554 24.2814 42.0877 24.678 40.9024 24.678C40.1256 24.678 39.4741 24.486 38.9463 24.0988C38.42 23.7132 38.0249 23.2221 37.761 22.6256C37.4971 22.0306 37.3584 21.4011 37.3435 20.7368L37.3212 19.8318L37.3435 18.9284C37.3868 17.8298 37.7014 16.8759 38.2873 16.0638C38.8732 15.2532 39.7454 14.8471 40.9024 14.8471C42.1906 14.8471 43.0986 15.3067 43.6249 16.2259C44.1527 17.1467 44.4165 18.3255 44.4165 19.7626C44.4165 20.0412 44.4091 20.2568 44.3942 20.4126Z" fill="#010077"/>
<path d="M55.618 14.685C54.959 13.8964 53.8467 13.5013 52.2798 13.5013C51.3867 13.5013 50.6323 13.6729 50.0165 14.0113C49.4023 14.3529 48.9475 14.7511 48.6553 15.2059C48.3616 15.6624 48.2155 16.0606 48.2155 16.4006C48.2155 16.5391 48.2632 16.6587 48.3586 16.7594C48.454 16.8602 48.5673 16.9105 48.6985 16.9105H49.0072C49.1384 16.9105 49.2442 16.8759 49.3247 16.8066C49.4052 16.7358 49.4753 16.6083 49.5335 16.4242C49.6662 15.9913 49.9688 15.6199 50.4459 15.3098C50.9215 15.0013 51.5328 14.8471 52.2798 14.8471C53.2891 14.8471 54.0406 15.0753 54.5311 15.5302C55.0216 15.9866 55.2661 16.6398 55.2661 17.4897V18.3019L51.7967 18.8119C50.4638 18.9976 49.4052 19.4147 48.6225 20.0647C47.8383 20.7132 47.4476 21.5474 47.4476 22.5689C47.4476 23.2016 47.6265 23.7824 47.9859 24.3081C48.3437 24.8338 48.8238 25.2509 49.4246 25.5594C50.024 25.8679 50.6755 26.0237 51.3792 26.0237C52.4035 26.0237 53.228 25.8459 53.8497 25.4902C54.4714 25.1344 54.9441 24.7016 55.2661 24.1916V25.2808C55.2661 25.4366 55.3109 25.5594 55.3988 25.6523C55.4868 25.7451 55.6031 25.7908 55.7507 25.7908H56.1234C56.2695 25.7908 56.3873 25.7451 56.4753 25.6523C56.5632 25.5594 56.6065 25.4366 56.6065 25.2808V17.559C56.6065 16.432 56.277 15.4735 55.618 14.685ZM55.2661 20.3654C55.2661 21.7567 54.9217 22.8239 54.2344 23.5652C53.5456 24.3081 52.6674 24.678 51.5984 24.678C50.8514 24.678 50.1969 24.486 49.6319 24.0988C49.0683 23.7132 48.7865 23.1639 48.7865 22.4524C48.7865 21.8181 49.0951 21.2924 49.7094 20.8753C50.3251 20.4582 51.2316 20.1655 52.4333 19.9939L55.2661 19.5768V20.3654Z" fill="#010077"/>
<path d="M66.7985 20.4126C66.2409 19.8711 65.2822 19.4383 63.921 19.1141C62.9981 18.8969 62.2959 18.6844 61.8128 18.475C61.3297 18.2673 61.0002 18.0391 60.8243 17.7919C60.6484 17.5448 60.5604 17.2348 60.5604 16.8649C60.5604 16.2605 60.7796 15.7741 61.2194 15.4027C61.6592 15.0328 62.3033 14.8471 63.1517 14.8471C63.9434 14.8471 64.5248 14.9667 64.8976 15.2059C65.2718 15.4468 65.6043 15.7977 65.898 16.2605C66.0143 16.462 66.1753 16.5627 66.381 16.5627H66.7105C66.8417 16.5627 66.9551 16.5202 67.0505 16.4352C67.1459 16.3502 67.1936 16.2385 67.1936 16.0984C67.1936 15.8355 67.043 15.4955 66.7433 15.0784C66.4437 14.6613 65.9889 14.2946 65.3821 13.9767C64.7738 13.6603 64.0313 13.5013 63.1517 13.5013C62.272 13.5013 61.6041 13.6635 61.0107 13.9893C60.4173 14.3135 59.97 14.7306 59.6703 15.2406C59.3706 15.7505 59.2201 16.292 59.2201 16.8649C59.2201 17.6991 59.4586 18.3869 59.9342 18.9283C60.4098 19.4698 61.2999 19.8947 62.603 20.2032C63.599 20.4504 64.3489 20.6707 64.8543 20.8643C65.3598 21.0579 65.725 21.2861 65.9531 21.5474C66.1798 21.8118 66.2931 22.1502 66.2931 22.5689C66.2931 23.2488 66.0143 23.7698 65.4582 24.1334C64.902 24.497 64.17 24.678 63.262 24.678C62.4569 24.678 61.8232 24.5426 61.3625 24.2719C60.9004 24.0028 60.5082 23.6282 60.1862 23.1481C60.0997 23.0238 60.0222 22.9435 59.9566 22.9042C59.8895 22.8664 59.806 22.8459 59.7031 22.8459H59.3736C59.2573 22.8459 59.147 22.89 59.0441 22.9734C58.9427 23.06 58.8906 23.1717 58.8906 23.3102C58.8906 23.5731 59.0561 23.9209 59.3856 24.3538C59.7151 24.7866 60.2056 25.1738 60.8571 25.5138C61.5087 25.8537 62.3093 26.0237 63.262 26.0237C64.2147 26.0237 64.9751 25.8679 65.6341 25.5594C66.2931 25.2509 66.7911 24.8338 67.128 24.3081C67.465 23.7824 67.6334 23.2016 67.6334 22.5689C67.6334 21.6717 67.3546 20.9524 66.7985 20.4126Z" fill="#010077"/>
<path d="M68.364 23.3102C68.364 23.0678 68.4207 22.838 68.5265 22.6382C68.5221 22.9813 68.4788 23.3134 68.3953 23.6329C68.3744 23.5243 68.364 23.4173 68.364 23.3102Z" fill="white"/>
<path d="M77.1651 20.4126C76.6089 19.8711 75.6503 19.4383 74.2875 19.1141C73.3661 18.8969 72.6624 18.6844 72.1794 18.475C71.6963 18.2673 71.3668 18.0391 71.1909 17.7919C71.0149 17.5448 70.927 17.2348 70.927 16.8649C70.927 16.2605 71.1476 15.7741 71.586 15.4027C72.0258 15.0328 72.6699 14.8471 73.5197 14.8471C74.3099 14.8471 74.8914 14.9667 75.2656 15.2059C75.6383 15.4468 75.9723 15.7977 76.2645 16.2605C76.3823 16.462 76.5433 16.5627 76.7476 16.5627H77.0771C77.2098 16.5627 77.3231 16.5202 77.4185 16.4352C77.5125 16.3502 77.5602 16.2385 77.5602 16.0984C77.5602 15.8355 77.4111 15.4955 77.1099 15.0784C76.8102 14.6613 76.3555 14.2946 75.7487 13.9767C75.5876 13.8933 75.4162 13.8209 75.2358 13.7579C74.9316 13.654 74.5992 13.5816 74.2383 13.5407C74.0102 13.5139 73.7702 13.5013 73.5197 13.5013C72.6848 13.5013 71.9706 13.6635 71.3772 13.9893C70.7853 14.3135 70.338 14.7306 70.0384 15.2406C69.7372 15.7505 69.5881 16.292 69.5881 16.8649C69.5881 17.6991 69.8252 18.3869 70.3008 18.9283C70.7764 19.4698 71.6665 19.8947 72.9696 20.2032C73.9655 20.4504 74.7169 20.6707 75.2209 20.8643C75.7263 21.0579 76.0931 21.2861 76.3197 21.5474C76.5463 21.8118 76.6596 22.1502 76.6596 22.5689C76.6596 23.2488 76.3823 23.7698 75.8262 24.1334C75.2686 24.497 74.5365 24.678 73.6286 24.678C72.8234 24.678 72.1898 24.5426 71.7291 24.2719C71.2684 24.0028 70.8763 23.6282 70.5542 23.1481C70.4663 23.0238 70.3887 22.9435 70.3231 22.9042C70.2575 22.8664 70.1726 22.8459 70.0712 22.8459H69.7417C69.6239 22.8459 69.5136 22.89 69.4122 22.9734C69.3093 23.06 69.2586 23.1717 69.2586 23.3102C69.2586 23.5731 69.4226 23.9209 69.7521 24.3538C70.0816 24.7866 70.5721 25.1738 71.2237 25.5138C71.8752 25.8537 72.6773 26.0237 73.6286 26.0237C73.7866 26.0237 73.9402 26.019 74.0907 26.0096C74.4411 25.9891 74.7691 25.9435 75.0763 25.8726C75.4087 25.7971 75.7174 25.6916 76.0006 25.5594C76.6596 25.2509 77.1576 24.8338 77.4946 24.3081C77.8315 23.7824 78 23.2016 78 22.5689C78 21.6717 77.7212 20.9524 77.1651 20.4126Z" fill="#010077"/>
<path d="M15.8084 12.9174C17.1992 12.9174 18.3266 11.7272 18.3266 10.259C18.3266 8.79083 17.1992 7.60062 15.8084 7.60062C14.4177 7.60062 13.2902 8.79083 13.2902 10.259C13.2902 11.7272 14.4177 12.9174 15.8084 12.9174Z" fill="#010077"/>
</g>
<defs>
<clipPath id="clip0_122_1614">
<rect width="78" height="38" fill="white"/>
</clipPath>
</defs>
</svg>
