<svg width="78" height="38" viewBox="0 0 78 38" fill="none" xmlns="http://www.w3.org/2000/svg">
<g clip-path="url(#clip0_395_15377)">
<path d="M20.2738 10.2598V22.716C20.2738 25.4705 21.9198 26.8351 24.0816 26.8351C24.9046 26.8351 25.7038 26.6368 26.5029 26.2401L25.4682 23.9327C25.1864 24.0822 24.927 24.1562 24.6691 24.1562C23.8938 24.1562 23.2825 23.684 23.2825 22.6673V10.2598H20.2738Z" fill="#010077"/>
<path d="M27.891 10.2598V22.716C27.891 25.4705 29.5355 26.8351 31.6989 26.8351C32.5219 26.8351 33.321 26.6368 34.1202 26.2401L33.0855 23.9327C32.8037 24.0822 32.5442 24.1562 32.2863 24.1562C31.511 24.1562 30.8997 23.684 30.8997 22.6673V10.2598H27.891Z" fill="#010077"/>
<path d="M17.3113 14.8242H14.3026V26.5864H17.3113V14.8242Z" fill="#010077"/>
<path d="M23.4838 38.001L10.5067 16.2395C9.709 15.4525 8.82189 14.952 7.83638 14.7427C6.94778 14.5932 6.2202 14.6404 5.66557 14.7537L5.68048 14.7474C5.65662 14.7537 5.63426 14.7584 5.6119 14.7647C5.60593 14.7663 5.59997 14.7679 5.5955 14.7694C5.16312 14.8733 4.75013 15.0339 4.37442 15.2432L4.37293 15.2448C3.78699 15.5737 3.29647 16.0223 2.98635 16.5638V14.8277H0V31.7508H3.00872V25.3244C3.87793 26.3412 5.02894 26.8385 6.46322 26.8385C6.70177 26.8385 6.93436 26.8212 7.16397 26.796L8.18824 26.5836C9.02913 26.3238 9.78802 25.8643 10.4589 25.2016C11.5637 24.1345 12.1273 22.6219 12.1273 20.7111C12.1273 18.8003 11.5876 17.3114 10.5052 16.2442L23.4838 38.001ZM6.08751 24.1801C4.30136 24.1801 3.03257 22.9147 3.03257 20.7552C3.03257 18.4478 4.46686 17.2815 6.18144 17.2815C7.89602 17.2815 9.14244 18.5721 9.14244 20.6812C9.14244 22.7903 7.89751 24.1801 6.08602 24.1801H6.08751Z" fill="#010077"/>
<path d="M42.2413 13.623C42.5395 13.6844 42.8168 13.7741 43.0747 13.8906C43.0702 13.9064 43.0643 13.9221 43.0598 13.9378H42.1414C42.1727 13.8324 42.2055 13.7285 42.2413 13.623Z" fill="#36D588"/>
<path d="M43.1806 25.5857C42.9256 25.7101 42.6498 25.8077 42.3531 25.8785C42.3158 25.773 42.28 25.666 42.2458 25.5605H43.1716C43.1716 25.5605 43.1776 25.5779 43.1806 25.5857Z" fill="#36D588"/>
<path d="M45.7346 18.9982C45.6898 17.4526 45.2903 16.1493 44.5373 15.0901C44.1557 14.5549 43.6681 14.1551 43.0747 13.8907C42.8168 13.7742 42.5395 13.6845 42.2413 13.6231C41.8701 13.5413 41.4675 13.502 41.0336 13.502C39.4219 13.502 38.1919 14.1126 37.3436 15.334V14.2449C37.3436 14.0906 37.2988 13.9663 37.2124 13.8734C37.1244 13.7805 37.0066 13.7349 36.8605 13.7349H36.4863C36.3402 13.7349 36.2239 13.7805 36.1359 13.8734C36.0479 13.9663 36.0032 14.0906 36.0032 14.2449V29.6869C36.0032 29.8412 36.0479 29.9655 36.1359 30.0584C36.2239 30.1513 36.3402 30.1985 36.4863 30.1985H36.8605C37.0066 30.1985 37.1244 30.1513 37.2124 30.0584C37.2988 29.9655 37.3436 29.8412 37.3436 29.6869V24.1923C38.2068 25.4136 39.4368 26.0243 41.0336 26.0243C41.5122 26.0243 41.9506 25.9755 42.3531 25.8795C42.6498 25.8087 42.9256 25.7111 43.1806 25.5868C43.7263 25.3224 44.178 24.9399 44.5373 24.4362C45.2903 23.3769 45.6898 22.0737 45.7346 20.5281C45.748 20.3738 45.7554 20.1189 45.7554 19.7631C45.7554 19.4074 45.748 19.1525 45.7346 18.9982ZM44.3942 20.4132C44.351 21.6645 44.0543 22.6891 43.5041 23.4856C42.9555 24.282 42.0877 24.6786 40.9024 24.6786C40.1257 24.6786 39.4741 24.4866 38.9463 24.0994C38.42 23.7138 38.0249 23.2227 37.761 22.6262C37.4971 22.0312 37.3585 21.4016 37.3436 20.7374L37.3212 19.8324L37.3436 18.929C37.3868 17.8303 37.7014 16.8765 38.2873 16.0644C38.8733 15.2538 39.7455 14.8477 40.9024 14.8477C42.1906 14.8477 43.0986 15.3073 43.6249 16.2265C44.1527 17.1472 44.4166 18.3261 44.4166 19.7631C44.4166 20.0417 44.4091 20.2574 44.3942 20.4132Z" fill="#36D588"/>
<path d="M55.618 14.6856C54.959 13.897 53.8468 13.502 52.2798 13.502C51.3867 13.502 50.6323 13.6735 50.0166 14.0119C49.4023 14.3535 48.9475 14.7517 48.6553 15.2065C48.3616 15.663 48.2155 16.0612 48.2155 16.4012C48.2155 16.5397 48.2632 16.6593 48.3586 16.76C48.454 16.8608 48.5674 16.9111 48.6986 16.9111H49.0072C49.1384 16.9111 49.2442 16.8765 49.3248 16.8073C49.4053 16.7364 49.4753 16.6089 49.5335 16.4248C49.6662 15.992 49.9688 15.6205 50.4459 15.3104C50.9216 15.0019 51.5328 14.8477 52.2798 14.8477C53.2892 14.8477 54.0406 15.0759 54.5311 15.5308C55.0216 15.9872 55.2662 16.6404 55.2662 17.4904V18.3025L51.7967 18.8125C50.4638 18.9982 49.4053 19.4153 48.6225 20.0653C47.8383 20.7138 47.4477 21.548 47.4477 22.5695C47.4477 23.2022 47.6266 23.783 47.9859 24.3087C48.3437 24.8344 48.8238 25.2515 49.4246 25.56C50.024 25.8685 50.6755 26.0243 51.3793 26.0243C52.4035 26.0243 53.228 25.8465 53.8498 25.4908C54.4715 25.1351 54.9441 24.7022 55.2662 24.1923V25.2814C55.2662 25.4373 55.3109 25.56 55.3988 25.6529C55.4868 25.7458 55.6031 25.7914 55.7507 25.7914H56.1234C56.2696 25.7914 56.3873 25.7458 56.4753 25.6529C56.5633 25.56 56.6065 25.4373 56.6065 25.2814V17.5596C56.6065 16.4327 56.277 15.4741 55.618 14.6856ZM55.2662 20.366C55.2662 21.7573 54.9217 22.8245 54.2344 23.5658C53.5456 24.3087 52.6674 24.6786 51.5984 24.6786C50.8515 24.6786 50.197 24.4866 49.6319 24.0994C49.0683 23.7138 48.7865 23.1645 48.7865 22.453C48.7865 21.8187 49.0952 21.293 49.7094 20.8759C50.3252 20.4588 51.2317 20.1661 52.4334 19.9945L55.2662 19.5774V20.366Z" fill="#36D588"/>
<path d="M66.7986 20.4132C66.241 19.8718 65.2823 19.4389 63.9211 19.1147C62.9982 18.8975 62.2959 18.685 61.8129 18.4757C61.3298 18.2679 61.0003 18.0397 60.8244 17.7926C60.6484 17.5454 60.5605 17.2354 60.5605 16.8655C60.5605 16.2611 60.7796 15.7747 61.2195 15.4033C61.6593 15.0334 62.3034 14.8477 63.1517 14.8477C63.9434 14.8477 64.5249 14.9673 64.8976 15.2065C65.2718 15.4474 65.6043 15.7984 65.898 16.2611C66.0143 16.4626 66.1754 16.5633 66.3811 16.5633H66.7106C66.8418 16.5633 66.9551 16.5208 67.0505 16.4358C67.146 16.3508 67.1937 16.2391 67.1937 16.099C67.1937 15.8361 67.0431 15.4962 66.7434 15.0791C66.4437 14.662 65.989 14.2952 65.3822 13.9773C64.7739 13.6609 64.0314 13.502 63.1517 13.502C62.2721 13.502 61.6041 13.6641 61.0107 13.9899C60.4173 14.3141 59.9701 14.7312 59.6704 15.2412C59.3707 15.7511 59.2201 16.2926 59.2201 16.8655C59.2201 17.6997 59.4587 18.3875 59.9343 18.929C60.4099 19.4704 61.3 19.8954 62.6031 20.2039C63.599 20.451 64.349 20.6713 64.8544 20.8649C65.3598 21.0585 65.7251 21.2867 65.9532 21.548C66.1798 21.8124 66.2931 22.1508 66.2931 22.5695C66.2931 23.2495 66.0143 23.7704 65.4582 24.134C64.9021 24.4976 64.17 24.6786 63.2621 24.6786C62.457 24.6786 61.8233 24.5433 61.3626 24.2725C60.9004 24.0034 60.5083 23.6288 60.1863 23.1487C60.0998 23.0244 60.0223 22.9441 59.9567 22.9048C59.8896 22.867 59.8061 22.8465 59.7032 22.8465H59.3737C59.2574 22.8465 59.1471 22.8906 59.0442 22.974C58.9428 23.0606 58.8906 23.1723 58.8906 23.3108C58.8906 23.5737 59.0561 23.9215 59.3856 24.3544C59.7151 24.7872 60.2056 25.1744 60.8572 25.5144C61.5087 25.8544 62.3094 26.0243 63.2621 26.0243C64.2148 26.0243 64.9752 25.8685 65.6341 25.56C66.2931 25.2515 66.7911 24.8344 67.1281 24.3087C67.465 23.783 67.6335 23.2022 67.6335 22.5695C67.6335 21.6724 67.3547 20.9531 66.7986 20.4132Z" fill="#36D588"/>
<path d="M68.364 23.3108C68.364 23.0684 68.4207 22.8386 68.5266 22.6387C68.5221 22.9818 68.4788 23.3139 68.3954 23.6334C68.3745 23.5248 68.364 23.4178 68.364 23.3108Z" fill="white"/>
<path d="M77.1651 20.4132C76.609 19.8718 75.6503 19.4389 74.2876 19.1147C73.3662 18.8975 72.6625 18.685 72.1794 18.4757C71.6963 18.2679 71.3668 18.0397 71.1909 17.7926C71.015 17.5454 70.927 17.2354 70.927 16.8655C70.927 16.2611 71.1477 15.7747 71.586 15.4033C72.0258 15.0334 72.6699 14.8477 73.5197 14.8477C74.3099 14.8477 74.8914 14.9673 75.2656 15.2065C75.6384 15.4474 75.9723 15.7984 76.2646 16.2611C76.3823 16.4626 76.5434 16.5633 76.7476 16.5633H77.0771C77.2098 16.5633 77.3231 16.5208 77.4186 16.4358C77.5125 16.3508 77.5602 16.2391 77.5602 16.099C77.5602 15.8361 77.4111 15.4962 77.1099 15.0791C76.8102 14.662 76.3555 14.2952 75.7487 13.9773C75.5877 13.8939 75.4162 13.8215 75.2358 13.7585C74.9317 13.6546 74.5992 13.5822 74.2384 13.5413C74.0103 13.5145 73.7702 13.502 73.5197 13.502C72.6848 13.502 71.9707 13.6641 71.3773 13.9899C70.7854 14.3141 70.3381 14.7312 70.0384 15.2412C69.7372 15.7511 69.5881 16.2926 69.5881 16.8655C69.5881 17.6997 69.8252 18.3875 70.3008 18.929C70.7764 19.4704 71.6665 19.8954 72.9696 20.2039C73.9655 20.451 74.717 20.6713 75.2209 20.8649C75.7263 21.0585 76.0931 21.2867 76.3197 21.548C76.5464 21.8124 76.6597 22.1508 76.6597 22.5695C76.6597 23.2495 76.3823 23.7704 75.8262 24.134C75.2686 24.4976 74.5366 24.6786 73.6286 24.6786C72.8235 24.6786 72.1898 24.5433 71.7291 24.2725C71.2684 24.0034 70.8763 23.6288 70.5543 23.1487C70.4663 23.0244 70.3888 22.9441 70.3232 22.9048C70.2576 22.867 70.1726 22.8465 70.0712 22.8465H69.7417C69.6239 22.8465 69.5136 22.8906 69.4122 22.974C69.3093 23.0606 69.2586 23.1723 69.2586 23.3108C69.2586 23.5737 69.4226 23.9215 69.7521 24.3544C70.0816 24.7872 70.5722 25.1744 71.2237 25.5144C71.8752 25.8544 72.6774 26.0243 73.6286 26.0243C73.7866 26.0243 73.9402 26.0196 74.0908 26.0102C74.4411 25.9897 74.7691 25.9441 75.0763 25.8732C75.4088 25.7977 75.7174 25.6922 76.0007 25.56C76.6597 25.2515 77.1576 24.8344 77.4946 24.3087C77.8315 23.783 78 23.2022 78 22.5695C78 21.6724 77.7212 20.9531 77.1651 20.4132Z" fill="#36D588"/>
<path d="M15.8084 12.9184C17.1992 12.9184 18.3266 11.7282 18.3266 10.26C18.3266 8.79177 17.1992 7.60156 15.8084 7.60156C14.4177 7.60156 13.2902 8.79177 13.2902 10.26C13.2902 11.7282 14.4177 12.9184 15.8084 12.9184Z" fill="#010077"/>
</g>
<defs>
<clipPath id="clip0_395_15377">
<rect width="78" height="38" fill="white"/>
</clipPath>
</defs>
</svg>
