<svg width="14" height="14" viewBox="0 0 14 14" fill="none" xmlns="http://www.w3.org/2000/svg">
<path d="M6.99301 0.246094C3.31301 0.246094 0.333008 3.23276 0.333008 6.91276C0.333008 10.5928 3.31301 13.5794 6.99301 13.5794C10.6797 13.5794 13.6663 10.5928 13.6663 6.91276C13.6663 3.23276 10.6797 0.246094 6.99301 0.246094ZM6.99967 12.2461C4.05301 12.2461 1.66634 9.85943 1.66634 6.91276C1.66634 3.96609 4.05301 1.57943 6.99967 1.57943C9.94634 1.57943 12.333 3.96609 12.333 6.91276C12.333 9.85943 9.94634 12.2461 6.99967 12.2461ZM7.33301 3.57943H6.33301V7.57943L9.83301 9.67943L10.333 8.85943L7.33301 7.07943V3.57943Z" fill="#000072"/>
</svg>
