<svg width="14" height="15" viewBox="0 0 14 15" fill="none" xmlns="http://www.w3.org/2000/svg">
<path fill-rule="evenodd" clip-rule="evenodd" d="M1.27522 10.743C0.694281 9.74105 0.388708 8.60432 0.389073 7.4399H0.389125C0.390583 3.79706 3.36855 0.833252 7.02793 0.833252C8.80381 0.833978 10.4705 1.52214 11.724 2.77082C12.9773 4.01965 13.6673 5.67977 13.6667 7.44519C13.6651 11.088 10.6867 14.0522 7.02793 14.0522H7.02506C5.91412 14.0518 4.82235 13.7743 3.85267 13.2479L0.333344 14.1666L1.27522 10.743ZM2.3535 10.3628L2.4849 10.5704L2.48491 10.5705L1.9273 12.5968L4.01574 12.0517L4.2173 12.1707C5.06428 12.671 6.03548 12.9358 7.02574 12.9363H7.02793C10.0692 12.9363 12.5444 10.4726 12.5458 7.44478C12.5462 5.97729 11.9729 4.59753 10.9311 3.55958C9.88918 2.52173 8.50397 1.94971 7.03001 1.94909C3.98636 1.94909 1.51116 4.41248 1.50996 7.44032C1.50954 8.47791 1.8011 9.48838 2.3535 10.3628ZM4.99543 4.39255C5.11361 4.39737 5.24439 4.40292 5.36866 4.67789V4.67794C5.4534 4.86551 5.59584 5.21484 5.7096 5.49384C5.79386 5.70049 5.86238 5.86855 5.88007 5.9037C5.92147 5.98629 5.94918 6.08274 5.89382 6.19297C5.88548 6.20958 5.87776 6.22525 5.8704 6.24022C5.82893 6.32449 5.79843 6.38645 5.72819 6.46835C5.70039 6.50064 5.67164 6.53544 5.6429 6.57024C5.58583 6.63932 5.5288 6.70837 5.47923 6.75758C5.39606 6.83987 5.30965 6.92936 5.40642 7.09445C5.50319 7.25981 5.83611 7.80035 6.32923 8.23808C6.85901 8.70828 7.3192 8.90714 7.55294 9.00814C7.59883 9.02798 7.636 9.04404 7.66324 9.05764C7.82908 9.14023 7.9259 9.1265 8.02262 9.0161C8.11944 8.90597 8.4371 8.5341 8.54772 8.369C8.65835 8.20365 8.76892 8.23113 8.92101 8.2862C9.07304 8.34132 9.88856 8.74083 10.0545 8.82343C10.0868 8.8395 10.117 8.854 10.145 8.86745C10.2608 8.9231 10.3391 8.96069 10.3725 9.0161C10.4139 9.08517 10.4139 9.41567 10.2756 9.80123C10.1375 10.1868 9.46017 10.5587 9.156 10.5862C9.12677 10.5889 9.09772 10.5923 9.06783 10.5958C8.78676 10.6287 8.43205 10.6703 7.16548 10.1731C5.60747 9.56144 4.58012 8.04576 4.36761 7.73224C4.35015 7.70648 4.33819 7.68883 4.33189 7.68047L4.33009 7.67808C4.24081 7.55929 3.6546 6.77937 3.6546 5.9725C3.6546 5.21209 4.03 4.81346 4.20278 4.62998C4.21461 4.61742 4.22548 4.60588 4.23522 4.59529C4.38715 4.43014 4.56689 4.38871 4.67752 4.38871C4.68473 4.38871 4.69194 4.38871 4.69915 4.38871C4.80241 4.38869 4.90498 4.38867 4.99543 4.39255Z" fill="#000072"/>
</svg>
