<svg width="14" height="11" viewBox="0 0 14 11" fill="none" xmlns="http://www.w3.org/2000/svg">
<path d="M1.66668 10.8334C1.30001 10.8334 0.986232 10.703 0.725344 10.4421C0.46401 10.1807 0.333344 9.86675 0.333344 9.50008V1.50008C0.333344 1.13341 0.46401 0.819637 0.725344 0.558748C0.986232 0.297415 1.30001 0.166748 1.66668 0.166748H12.3333C12.7 0.166748 13.014 0.297415 13.2753 0.558748C13.5362 0.819637 13.6667 1.13341 13.6667 1.50008V9.50008C13.6667 9.86675 13.5362 10.1807 13.2753 10.4421C13.014 10.703 12.7 10.8334 12.3333 10.8334H1.66668ZM12.3333 2.83341L7.35001 5.95008C7.29445 5.98341 7.23601 6.0083 7.17468 6.02475C7.11379 6.04164 7.05557 6.05008 7.00001 6.05008C6.94445 6.05008 6.88623 6.04164 6.82534 6.02475C6.76401 6.0083 6.70557 5.98341 6.65001 5.95008L1.66668 2.83341V9.50008H12.3333V2.83341ZM7.00001 4.83341L12.3333 1.50008H1.66668L7.00001 4.83341ZM1.66668 2.83341V3.00008V2.01675V2.03341V1.50008V2.03341V2.02475V3.00008V2.83341V9.50008V2.83341Z" fill="#000072"/>
</svg>
